<svg xmlns="http://www.w3.org/2000/svg">

  <symbol id="like" viewBox="0 0 503.876 503.876">
    <g><g>
      <path d="M469.361,71.689c-32.071-35.681-70.026-54.532-109.761-54.532c-44.309,0-84.27,27.01-107.654,71.638 c-23.334-44.628-62.993-71.638-106.857-71.638c-39.743,0-76.649,18.331-109.719,54.482 C-3.392,114.042-25.273,210.34,50.889,282.356c35.143,33.221,193.779,200.074,195.374,201.753c1.586,1.662,3.785,2.61,6.077,2.61 h0.008c2.291,0,4.482-0.94,6.068-2.594c1.603-1.679,160.667-168.163,195.458-201.837 C528.576,209.962,507.274,113.866,469.361,71.689z"/>
    </g></g>
  </symbol>

  <symbol id="com" viewBox="0 0 64 64">
    <g>
      <path d="m60 29.394c-.009 5.044-1.7 9.643-6.377 13.93-1.069.979.311 7.069 3.676 11.421a.77.77 0 0 1 -.7 1.246c-9.12-1.351-13.315-4.789-14.706-5.869a1.037 1.037 0 0 0 -.9-.182 35.908 35.908 0 0 1 -8.912 1.107c-15.511 0-28.081-9.637-28.081-21.524s12.57-21.523 28.076-21.523c15.335 0 27.945 9.832 27.924 21.394z"/>
    </g>
  </symbol>

  <symbol id="izbra" viewBox="0 0 512 512">
    <g>
      <path d="M78.377,0v510.536l183.308-143.085L433.622,512h0.001V0H78.377z M403.742,447.842L262.385,329.001L108.259,449.306V29.881 h295.483V447.842z"/>
    </g>
  </symbol>
  
  <symbol id="odnoclas" viewBox="0 0 176 176">
    <g>
      <path d="m74.37 61a13.62 13.62 0 1 1 13.7 13.49 13.59 13.59 0 0 1 -13.7-13.49z"/>
      <path d="m171.63 40.85c-3.95-15.85-20.63-32.54-36.48-36.48a256.55 256.55 0 0 0 -94.3 0c-15.85 3.94-32.53 20.63-36.48 36.48a256.46 256.46 0 0 0 0 94.31c4 15.89 20.59 32.54 36.48 36.48a261.48 261.48 0 0 0 45.82 4.36h1.33q6.72 0 13.4-.35a268.5 268.5 0 0 0 33.75-4c15.89-3.94 32.53-20.59 36.48-36.48a262 262 0 0 0 4.37-48.48v-.2a262.11 262.11 0 0 0 -4.37-45.64zm-83.52-7.85a27.84 27.84 0 1 1 -27.93 27.77 27.85 27.85 0 0 1 27.93-27.77zm31.18 66.61a33.43 33.43 0 0 1 -12.05 7.79 56.61 56.61 0 0 1 -13.68 3.07c.7.76 1 1.14 1.48 1.58 6.33 6.36 12.69 12.7 19 19.09a6.28 6.28 0 0 1 1.42 7.4 7.51 7.51 0 0 1 -7 4.39 6.87 6.87 0 0 1 -4.45-2.28c-4.78-4.81-9.65-9.53-14.33-14.43-1.36-1.43-2-1.16-3.22.08-4.81 5-9.7 9.82-14.61 14.67a6.12 6.12 0 0 1 -7.4 1.32 7.47 7.47 0 0 1 -4.32-6.88 6.94 6.94 0 0 1 2.32-4.63q9.41-9.39 18.77-18.8c.42-.42.8-.86 1.41-1.5-8.53-.89-16.22-3-22.8-8.14a30.54 30.54 0 0 1 -2.41-2c-2.88-2.76-3.17-5.93-.89-9.2 1.95-2.79 5.22-3.54 8.63-1.94a13.42 13.42 0 0 1 1.84 1.14 37.38 37.38 0 0 0 41.43.38 11.13 11.13 0 0 1 4-2.09 6.33 6.33 0 0 1 7.25 2.9c1.85 2.93 1.83 5.8-.39 8.08z"/>
    </g>
  </symbol>

  <symbol id="vk" viewBox="0 0 512 512">
    <g>
      <path d="M476.07,35.93C440.14,0,382.32,0,266.67,0h-21.34C129.68,0,71.86,0,35.93,35.93C0,71.86,0,129.68,0,245.33v21.34 c0,115.65,0,173.47,35.93,209.4S129.68,512,245.33,512h21.34c115.65,0,173.47,0,209.4-35.93S512,382.32,512,266.67v-21.34 C512,129.68,512,71.86,476.07,35.93z M416.07,362.67h-37.34c-14.24,0-18.41-11.36-43.73-36.67 c-22.16-21.36-31.65-24.13-37.19-24.13c-7.52,0-9.77,2.13-9.77,12.8v33.48c0,9.18-2.93,14.52-26.67,14.52 c-39.56,0-83.04-24.02-113.89-68.31c-46.29-64.87-58.95-113.91-58.95-123.8c0-5.54,2.14-10.56,12.8-10.56h37.35 c9.54,0,13.13,4.18,16.71,14.51c18.26,53.19,49.06,99.68,61.72,99.68c4.74,0,6.92-2.19,6.92-14.24v-54.98 c-1.39-25.31-14.84-27.39-14.84-36.39c0-4.17,3.57-8.58,9.5-8.58h58.68c7.92,0,10.67,4.23,10.67,13.72v73.97 c0,7.9,3.44,10.67,5.81,10.67c4.75,0,8.71-2.77,17.41-11.47c26.9-30.06,45.89-76.33,45.89-76.33c2.38-5.54,6.75-10.56,16.25-10.56 h37.34c11.29,0,13.67,5.81,11.29,13.72c-4.75,21.76-50.24,85.83-50.24,85.83c-3.96,6.33-5.54,9.49,0,16.61 c3.96,5.54,17.01,16.61,25.71,26.9c16.04,18.04,28.13,33.26,31.5,43.75C432.08,357.33,426.74,362.67,416.07,362.67z"/>
    </g>
  </symbol>

  <symbol id="telegram" viewBox="0 0 24 24">
    <path d="m12 24c6.629 0 12-5.371 12-12s-5.371-12-12-12-12 5.371-12 12 5.371 12 12 12zm-6.509-12.26 11.57-4.461c.537-.194 1.006.131.832.943l.001-.001-1.97 9.281c-.146.658-.537.818-1.084.508l-3-2.211-1.447 1.394c-.16.16-.295.295-.605.295l.213-3.053 5.56-5.023c.242-.213-.054-.333-.373-.121l-6.871 4.326-2.962-.924c-.643-.204-.657-.643.136-.953z"/>
  </symbol>


  <symbol id="strelka_1" viewBox="0 0 100 100">
    <path d="M58.644,27.26v8.294c0,0.571-0.305,1.1-0.8,1.385L37.632,48.608c-1.066,0.616-1.066,2.155,0,2.771l20.212,11.669   c0.495,0.286,0.8,0.814,0.8,1.385v8.294c0,1.231-1.333,2.001-2.399,1.385L16.869,51.379c-1.066-0.616-1.066-2.155,0-2.771   l39.375-22.733C57.311,25.259,58.644,26.029,58.644,27.26z"/>
    <path d="M57.844,63.048l-2.376-1.372c-0.013,0.043-0.023,0.09-0.032,0.136l0.409,0.236c0.495,0.286,0.8,0.814,0.8,1.385v8.294   c0,1.008-0.894,1.693-1.803,1.575l1.404,0.81c1.066,0.616,2.399-0.154,2.399-1.385v-8.294   C58.644,63.862,58.339,63.334,57.844,63.048z"/>
    <path d="M37.632,48.608l20.212-11.669c0.495-0.286,0.8-0.814,0.8-1.385V27.26c0-1.115-1.092-1.84-2.091-1.512   c0.054,0.16,0.091,0.328,0.091,0.512v8.294c0,0.571-0.305,1.1-0.8,1.385L35.632,47.608c-0.078,0.052-0.745,0.516-0.8,1.385   c-0.057,0.911,0.609,1.467,0.673,1.518c0.639,0.443,1.277,0.885,1.916,1.328c-0.032-0.112-0.07-0.312,0.019-0.51   c0.011-0.025,0.024-0.049,0.037-0.07C36.582,50.587,36.625,49.19,37.632,48.608z"/>
    <path d="M58.644,27.26v8.294c0,0.571-0.305,1.1-0.8,1.385L37.632,48.608   c-1.066,0.616-1.066,2.155,0,2.771l20.212,11.669c0.495,0.286,0.8,0.814,0.8,1.385v8.294c0,1.231-1.333,2.001-2.399,1.385   L16.869,51.379c-1.066-0.616-1.066-2.155,0-2.771l39.375-22.733C57.311,25.259,58.644,26.029,58.644,27.26z" style="fill:none;stroke:#000000;stroke-miterlimit:10;"/>
    <path d="M86.058,27.26v8.294c0,0.571-0.305,1.1-0.8,1.385L65.047,48.608c-1.066,0.616-1.066,2.155,0,2.771l20.212,11.669   c0.495,0.286,0.8,0.814,0.8,1.385v8.294c0,1.231-1.333,2.001-2.399,1.385L44.283,51.379c-1.066-0.616-1.066-2.155,0-2.771   l39.375-22.733C84.725,25.259,86.058,26.029,86.058,27.26z"/>
    <path d="M85.258,63.048l-2.376-1.372c-0.013,0.043-0.023,0.09-0.032,0.136l0.409,0.236c0.495,0.286,0.8,0.814,0.8,1.385v8.294   c0,1.008-0.894,1.693-1.803,1.575l1.404,0.81c1.066,0.616,2.399-0.154,2.399-1.385v-8.294   C86.058,63.862,85.753,63.334,85.258,63.048z"/>
    <path d="M65.047,48.608l20.212-11.669c0.495-0.286,0.8-0.814,0.8-1.385V27.26c0-1.115-1.092-1.84-2.091-1.512   c0.054,0.16,0.091,0.328,0.091,0.512v8.294c0,0.571-0.305,1.1-0.8,1.385L63.047,47.608c-0.078,0.052-0.745,0.516-0.8,1.385 c-0.057,0.911,0.609,1.467,0.673,1.518c0.639,0.443,1.277,0.885,1.916,1.328c-0.032-0.112-0.07-0.312,0.019-0.51   c0.011-0.025,0.024-0.049,0.037-0.07C63.996,50.587,64.039,49.19,65.047,48.608z"/>
    <path d="M86.058,27.26v8.294c0,0.571-0.305,1.1-0.8,1.385L65.047,48.608   c-1.066,0.616-1.066,2.155,0,2.771l20.212,11.669c0.495,0.286,0.8,0.814,0.8,1.385v8.294c0,1.231-1.333,2.001-2.399,1.385   L44.283,51.379c-1.066-0.616-1.066-2.155,0-2.771l39.375-22.733C84.725,25.259,86.058,26.029,86.058,27.26z"/>
  </symbol>

  <symbol id="strelka_2" viewBox="0 0 100 100">
  <path d="M41.762,27.26v8.294c0,0.571,0.305,1.1,0.8,1.385l20.212,11.669c1.066,0.616,1.066,2.155,0,2.771L42.562,63.048   c-0.495,0.286-0.8,0.814-0.8,1.385v8.294c0,1.231,1.333,2.001,2.399,1.385l39.375-22.733c1.066-0.616,1.066-2.155,0-2.771   L44.161,25.875C43.095,25.259,41.762,26.029,41.762,27.26z"/>
  <path d="M83.537,48.608L44.161,25.875c-0.193-0.112-0.395-0.164-0.597-0.19l37.972,21.923c1.066,0.616,1.066,2.155,0,2.771   L42.161,73.112c-0.1,0.058-0.205,0.092-0.308,0.126c0.308,0.914,1.401,1.398,2.308,0.874l39.375-22.733   C84.603,50.763,84.603,49.224,83.537,48.608z"/>
  <path d="M41.762,27.26v8.294c0,0.571,0.305,1.1,0.8,1.385l20.212,11.669   c1.066,0.616,1.066,2.155,0,2.771L42.562,63.048c-0.495,0.286-0.8,0.814-0.8,1.385v8.294c0,1.231,1.333,2.001,2.399,1.385   l39.375-22.733c1.066-0.616,1.066-2.155,0-2.771L44.161,25.875C43.095,25.259,41.762,26.029,41.762,27.26z" style="fill:none;stroke:#000000;stroke-miterlimit:10;"/>
  <path d="M14.664,27.273v8.294c0,0.571,0.305,1.1,0.8,1.385l20.212,11.669c1.066,0.616,1.066,2.155,0,2.771L15.464,63.061   c-0.495,0.286-0.8,0.814-0.8,1.385v8.294c0,1.231,1.333,2.001,2.399,1.385l39.375-22.733c1.066-0.616,1.066-2.155,0-2.771   L17.063,25.888C15.997,25.272,14.664,26.042,14.664,27.273z"/>
  <path d="M56.438,48.621L17.063,25.888c-0.193-0.112-0.395-0.164-0.597-0.19l37.972,21.923c1.066,0.616,1.066,2.155,0,2.771   L15.063,73.125c-0.1,0.058-0.205,0.092-0.308,0.126c0.308,0.914,1.401,1.398,2.308,0.874l39.375-22.733   C57.505,50.776,57.505,49.237,56.438,48.621z"/>
  <path d="M14.664,27.273v8.294c0,0.571,0.305,1.1,0.8,1.385l20.212,11.669   c1.066,0.616,1.066,2.155,0,2.771L15.464,63.061c-0.495,0.286-0.8,0.814-0.8,1.385v8.294c0,1.231,1.333,2.001,2.399,1.385   l39.375-22.733c1.066-0.616,1.066-2.155,0-2.771L17.063,25.888C15.997,25.272,14.664,26.042,14.664,27.273z" style="fill:none;stroke:#000000;stroke-miterlimit:10;"/>
  </symbol>

  <symbol id="krest" viewBox="0 0 512 512">
  <g>
    <polygon points="512,59.076 452.922,0 256,196.922 59.076,0 0,59.076 196.922,256 0,452.922 59.076,512 256,315.076 452.922,512 512,452.922 315.076,256 "/>
  </g>
  </symbol> 

  <symbol id="triangle_vniz" viewBox="0 0 284.929 284.929">
    <path d="M282.082,195.285L149.028,62.24c-1.901-1.903-4.088-2.856-6.562-2.856s-4.665,0.953-6.567,2.856L2.856,195.285
		C0.95,197.191,0,199.378,0,201.853c0,2.474,0.953,4.664,2.856,6.566l14.272,14.271c1.903,1.903,4.093,2.854,6.567,2.854
		c2.474,0,4.664-0.951,6.567-2.854l112.204-112.202l112.208,112.209c1.902,1.903,4.093,2.848,6.563,2.848
		c2.478,0,4.668-0.951,6.57-2.848l14.274-14.277c1.902-1.902,2.847-4.093,2.847-6.566
		C284.929,199.378,283.984,197.188,282.082,195.285z"/>
  </symbol>

</svg>